<svg xmlns="http://www.w3.org/2000/svg" viewBox="0 0 512 512" role="img" aria-labelledby="title desc">
  <title id="title">single_cell_tutorial sticker</title>
  <desc id="desc">OmicVerse repository hex sticker for single_cell_tutorial.</desc>
  <defs>
    <linearGradient id="bg" x1="112" y1="90" x2="398" y2="430" gradientUnits="userSpaceOnUse">
      <stop offset="0" stop-color="#050706"/>
      <stop offset=".58" stop-color="#020403"/>
      <stop offset="1" stop-color="#000000"/>
    </linearGradient>
  </defs>
  <polygon points="256,34 450,146 450,368 256,480 62,368 62,146" fill="#000000" opacity=".34"/>
  <polygon points="256,22 458,139 458,373 256,490 54,373 54,139" fill="url(#bg)" stroke="#0B0F0A" stroke-width="19" stroke-linejoin="round"/>
  <polygon points="256,22 458,139 458,373 256,490 54,373 54,139" fill="none" stroke="#E8FFE0" stroke-width="12" stroke-linejoin="round"/>
  <g opacity=".22" stroke="#37C96B" stroke-width="2.2">
    <path d="M112 166h288M100 222h312M100 278h312M112 334h288"/>
    <path d="M152 126v236M204 104v274M256 96v286M308 104v274M360 126v236"/>
  </g>
  
  <g id="motif">
    <rect x="126" y="150" width="72" height="62" rx="12" fill="#34C759" opacity=".76" stroke="#FFFFFF" stroke-width="6"/>
    <rect x="222" y="150" width="72" height="62" rx="12" fill="#00A6D6" opacity=".76" stroke="#FFFFFF" stroke-width="6"/>
    <rect x="318" y="150" width="72" height="62" rx="12" fill="#FFD43B" opacity=".76" stroke="#FFFFFF" stroke-width="6"/>
    <path d="M198 181h24M294 181h24" stroke="#FFFFFF" stroke-width="7" stroke-linecap="round"/>
    <path d="M166 275c42-31 85-34 129-10 25 14 50 15 76 1" fill="none" stroke="#34C759" stroke-width="7" stroke-linecap="round"/>
    <circle cx="178" cy="278" r="12" fill="#FF6B5F"/><circle cx="226" cy="256" r="12" fill="#00A6D6"/><circle cx="289" cy="266" r="12" fill="#FFD43B"/><circle cx="347" cy="267" r="12" fill="#34C759"/>
  </g>
  <path id="label" d="M306.65,371.24 L308.38,374.23 Q306.81,374.43 305.48,374.85 Q304.15,375.26 303.11,375.86 Q301.99,376.51 301.60,377.11 Q301.23,377.70 301.56,378.28 Q301.83,378.76 302.39,378.77 Q302.95,378.79 304.09,378.29 L304.84,377.99 Q308.08,376.63 309.63,376.91 Q311.18,377.18 312.27,379.06 Q313.41,381.03 312.53,382.86 Q311.65,384.69 308.77,386.35 Q307.55,387.05 306.13,387.61 Q304.72,388.17 303.12,388.58 L301.39,385.59 Q302.90,385.48 304.30,385.06 Q305.71,384.63 306.98,383.89 Q308.14,383.22 308.54,382.57 Q308.93,381.92 308.57,381.29 Q308.27,380.76 307.72,380.73 Q307.17,380.71 305.88,381.26 L305.14,381.57 Q302.32,382.75 300.75,382.47 Q299.18,382.19 298.13,380.38 Q297.01,378.42 297.80,376.70 Q298.60,374.98 301.37,373.38 Q302.46,372.75 303.75,372.23 Q305.04,371.70 306.65,371.24 Z M310.22,368.67 L314.15,366.40 L321.26,378.71 L317.33,380.98 L310.22,368.67 Z M307.45,363.87 L311.38,361.60 L313.24,364.82 L309.30,367.09 L307.45,363.87 Z M333.09,361.88 L337.42,369.38 L333.46,371.67 L332.76,370.45 L330.15,365.93 Q329.23,364.33 328.81,363.77 Q328.39,363.21 328.05,363.02 Q327.59,362.77 327.07,362.78 Q326.55,362.80 326.05,363.09 Q324.82,363.80 324.66,365.16 Q324.51,366.52 325.48,368.20 L328.98,374.26 L325.04,376.53 L317.93,364.21 L321.87,361.94 L322.91,363.74 Q323.18,362.15 323.88,361.07 Q324.59,359.98 325.80,359.28 Q327.93,358.05 329.79,358.72 Q331.65,359.39 333.09,361.88 Z M348.24,360.35 Q348.05,361.89 347.36,362.97 Q346.68,364.04 345.39,364.78 Q343.14,366.08 340.64,365.16 Q338.14,364.23 336.56,361.48 Q334.96,358.72 335.42,356.11 Q335.87,353.49 338.13,352.19 Q339.41,351.45 340.68,351.39 Q341.95,351.33 343.40,351.95 L342.34,350.12 L346.30,347.84 L352.69,358.91 Q354.41,361.88 353.43,364.53 Q352.46,367.17 348.90,369.23 Q347.75,369.90 346.57,370.34 Q345.39,370.79 344.09,371.06 L342.32,367.99 Q343.70,367.99 344.85,367.71 Q346.01,367.43 347.01,366.85 Q348.95,365.73 349.36,364.37 Q349.77,363.00 348.73,361.19 L348.24,360.35 Z M341.22,354.18 Q340.00,354.89 339.84,356.19 Q339.68,357.48 340.63,359.12 Q341.61,360.82 342.77,361.31 Q343.94,361.80 345.20,361.07 Q346.43,360.36 346.60,359.07 Q346.76,357.77 345.81,356.13 Q344.86,354.49 343.66,353.98 Q342.45,353.47 341.22,354.18 Z M347.31,340.86 L351.25,338.59 L361.12,355.70 L357.19,357.97 L347.31,340.86 Z M373.63,340.23 L374.27,341.35 L365.07,346.66 Q366.01,347.96 367.27,348.16 Q368.53,348.36 370.07,347.47 Q371.31,346.75 372.40,345.63 Q373.49,344.51 374.43,342.97 L376.19,346.00 Q375.09,347.34 373.85,348.41 Q372.61,349.49 371.22,350.30 Q367.87,352.23 365.04,351.60 Q362.21,350.97 360.44,347.90 Q358.70,344.89 359.52,342.11 Q360.34,339.33 363.53,337.49 Q366.44,335.82 369.19,336.56 Q371.94,337.30 373.63,340.23 Z M368.82,341.25 Q368.18,340.13 367.13,339.82 Q366.07,339.51 365.02,340.12 Q363.87,340.78 363.53,341.84 Q363.19,342.89 363.71,344.21 L368.82,341.25 Z M368.92,329.31 L384.05,320.57 L385.90,323.77 L380.45,326.92 L388.08,340.13 L383.85,342.57 L376.22,329.36 L370.77,332.51 L368.92,329.31 Z M390.16,332.54 L385.82,325.02 L389.78,322.73 L390.49,323.97 Q391.07,324.96 391.93,326.48 Q392.79,328.00 393.08,328.51 Q393.94,329.99 394.39,330.60 Q394.85,331.21 395.21,331.40 Q395.67,331.65 396.18,331.63 Q396.69,331.61 397.20,331.32 Q398.43,330.61 398.59,329.26 Q398.74,327.91 397.77,326.22 L394.26,320.14 L398.20,317.87 L405.31,330.19 L401.37,332.46 L400.35,330.68 Q400.08,332.27 399.38,333.36 Q398.68,334.44 397.48,335.13 Q395.34,336.37 393.47,335.70 Q391.60,335.04 390.16,332.54 Z M404.26,309.71 L406.28,313.21 L410.34,310.86 L411.96,313.68 L407.90,316.02 L410.92,321.24 Q411.41,322.10 411.93,322.21 Q412.45,322.31 413.46,321.73 L415.48,320.56 L417.11,323.37 L413.73,325.32 Q411.40,326.67 409.87,326.26 Q408.33,325.85 406.99,323.51 L403.97,318.29 L402.01,319.42 L400.39,316.61 L402.35,315.48 L400.33,311.98 L404.26,309.71 Z" fill="#FFFFFF"/>
</svg>
